<?xml version="1.0" encoding="utf-8"?><svg enable-background="new 0 0 285.2 330.9" height="330.9" viewBox="0 0 285.2 330.9" width="285.2" xmlns="http://www.w3.org/2000/svg"><path d="m260.8 131.9 5.4 5.4v40.5l9 9v116.1l-9 9v5.4c0 2-1.6 3.5-3.5 3.5h-226.9c-2 0-3.5-1.6-3.5-3.5v-181.9c0-2 1.6-3.5 3.5-3.5zm-.3 63c0 3.1 2.5 5.7 5.7 5.7 3.1 0 5.7-2.5 5.7-5.7 0-3.1-2.5-5.7-5.7-5.7-3.1 0-5.6 2.5-5.7 5.7zm0 99c0 3.1 2.5 5.7 5.7 5.7 3.1 0 5.7-2.5 5.7-5.7 0-3.1-2.5-5.7-5.7-5.7-3.1 0-5.6 2.5-5.7 5.7zm-180-153c0 3.1 2.5 5.7 5.7 5.7 3.1 0 5.7-2.5 5.7-5.7 0-3.1-2.5-5.7-5.7-5.7-3.1 0-5.6 2.5-5.7 5.7zm1.2 176.7c3.1 0 5.7-2.5 5.7-5.7 0-3.1-2.5-5.7-5.7-5.7-3.1 0-5.7 2.5-5.7 5.7s2.6 5.6 5.7 5.7zm130.5-4.2c2 0 2-3 0-3-.8 0-2 3 0 3zm9 0c2 0 2-3 0-3-.8 0-2 3 0 3zm9 0c2 0 2-3 0-3-.8 0-2 3 0 3zm9 0c2 0 2-3 0-3-.8 0-2 3 0 3zm9 0c2 0 2-3 0-3-.8 0-2 3 0 3zm9 0c2 0 2-3 0-3-.8 0-2 3 0 3zm-1.2-100.5c0 2.2 3.4 2.2 3.4 0s-3.4-2.3-3.4 0zm10.7 1.7c2.2 0 2.2-3.4 0-3.4-1 0-2.3 3.4 0 3.4zm-10.7 7.3c0 2.2 3.4 2.2 3.4 0s-3.4-2.3-3.4 0zm10.7 1.7c2.2 0 2.2-3.4 0-3.4-2.3 0-2.3 3.4 0 3.4zm-9 9c2.2 0 2.2-3.4 0-3.4-2.3 0-2.3 3.4 0 3.4zm9 0c2.2 0 2.2-3.4 0-3.4-2.3 0-2.3 3.4 0 3.4zm-160.7-78.3c2.2 0 2.2-3.4 0-3.4-.9 0-2.2 3.4 0 3.4zm0 9c2.2 0 2.2-3.4 0-3.4-.9 0-2.2 3.4 0 3.4zm-9-9c2.2 0 2.2-3.4 0-3.4-.9 0-2.2 3.4 0 3.4zm0 9c2.2 0 2.2-3.4 0-3.4-.9 0-2.2 3.4 0 3.4zm-9-9c2.2 0 2.2-3.4 0-3.4-.9 0-2.2 3.4 0 3.4zm0 9c2.2 0 2.2-3.4 0-3.4s-2.2 3.4 0 3.4zm91.8-20.9c2 0 2-3 0-3-.8 0-2 3 0 3zm-9 0c2 0 2-3 0-3-.8 0-2 3 0 3zm-9 0c2 0 2-3 0-3-.8 0-1.5.7-1.5 1.5.1.1.1 1.5 1.5 1.5zm-9 0c2 0 2-3 0-3-.8 0-1.5.7-1.5 1.5.1.1.1 1.5 1.5 1.5zm-10.5-1.5c0 .8.7 1.5 1.5 1.5 2 0 2-3 0-3-.8 0-1.5.6-1.5 1.5zm-7.5 1.5c2 0 2-3 0-3-.8 0-1.5.7-1.5 1.5.1.1.1 1.5 1.5 1.5zm-9 0c2 0 2-3 0-3s-2 3 0 3zm-9 0c2 0 2-3 0-3-.8 0-1.5.7-1.5 1.5.1.1.1 1.5 1.5 1.5zm-10.5-1.5c0 .8.7 1.5 1.5 1.5 2 0 2-3 0-3-.8 0-1.5.6-1.5 1.5zm-7.5 1.5c2 0 2-3 0-3-.8 0-1.5.7-1.5 1.5.1.1.1 1.5 1.5 1.5zm158.4 0c2 0 2-3 0-3-.8 0-2 3 0 3zm-9 0c2 0 2-3 0-3-.8 0-2 3 0 3zm-9 0c2 0 2-3 0-3-.8 0-2 3 0 3zm-9 0c2 0 2-3 0-3-.8 0-2 3 0 3zm-9 0c2 0 2-3 0-3-.8 0-2 3 0 3zm-9 0c2 0 2-3 0-3-.8 0-2 3 0 3zm-9 0c2 0 2-3 0-3-.8 0-2 3 0 3zm-9 0c2 0 2-3 0-3-.8 0-2 3 0 3zm-54 171c2 0 2-3 0-3-.8 0-2 3 0 3zm-9 0c2 0 2-3 0-3-.8 0-2 3 0 3zm18 0c2 0 2-3 0-3s-2 3 0 3zm9 0c2 0 2-3 0-3-.8 0-2 3 0 3zm9 0c2 0 2-3 0-3-.8 0-2 3 0 3zm9 0c2 0 2-3 0-3-.8 0-2 3 0 3zm9 0c2 0 2-3 0-3-.8 0-2 3 0 3zm9 0c2 0 2-3 0-3-.8 0-2 3 0 3z" fill="#0f7391"/><path d="m111.4 148.1c0 1.2-1.8 1.2-1.8 0 0-.5 1.8-1.2 1.8 0z" fill="none" stroke="#fff" stroke-miterlimit="5" stroke-width=".9"/><text fill="#fff" font-family="'ArialMT'" font-size="4.6875" transform="matrix(0 -1 1 0 136.7915 153.6087)">13</text><text fill="#fff" font-family="'ArialMT'" font-size="4.6875" transform="matrix(0 -1 1 0 145.792 153.6087)">12</text><text fill="#fff" font-family="'ArialMT'" font-size="4.6875" transform="matrix(0 -1 1 0 154.791 153.6087)">11</text><text fill="#fff" font-family="'ArialMT'" font-size="4.6875" transform="matrix(0 -1 1 0 163.79 153.6087)">10</text><text fill="#fff" font-family="'ArialMT'" font-size="4.6875" transform="matrix(0 -1 1 0 172.792 150.2259)">9</text><text fill="#fff" font-family="'ArialMT'" font-size="4.6875" transform="matrix(0 -1 1 0 181.791 150.2259)">8</text><text fill="#fff" font-family="'ArialMT'" font-size="4.6875" transform="matrix(0 -1 1 0 196.1904 150.2259)">7</text><text fill="#fff" font-family="'ArialMT'" font-size="4.6875" transform="matrix(0 -1 1 0 205.1914 150.2259)">6</text><text fill="#fff" font-family="'ArialMT'" font-size="4.6875" transform="matrix(0 -1 1 0 214.1904 150.2259)">5</text><text fill="#fff" font-family="'ArialMT'" font-size="4.6875" transform="matrix(0 -1 1 0 223.1895 150.2259)">4</text><text fill="#fff" font-family="'ArialMT'" font-size="4.6875" transform="matrix(0 -1 1 0 232.1914 150.2259)">3</text><text fill="#fff" font-family="'ArialMT'" font-size="4.6875" transform="matrix(0 -1 1 0 241.1904 150.2259)">2</text><text fill="#fff" font-family="'ArialMT'" font-size="5.8464" transform="translate(120.1938 177.1205)">L</text><text fill="#fff" font-family="'ArialMT'" font-size="4.176" transform="matrix(0 -1 1 0 168.959 305.6224)">5V</text><text fill="#fff" font-family="'ArialMT'" font-size="4.176" transform="matrix(-.00000004 -1 1 -.00000004 213.7777 305.6221)">A0</text><text fill="#fff" font-family="'ArialMT'" font-size="4.5936" transform="translate(229.3438 295.3895)">ANALOG IN</text><text fill="#fff" font-family="'ArialMT'" font-size="4.6875" transform="matrix(0 -1 1 0 118.4468 160.4349)">AREF</text><text fill="#fff" font-family="'ArialMT'" font-size="5.22" transform="translate(248.6675 212.6307)">1</text><text fill="#fff" font-family="'ArialMT'" font-size="4.6875" transform="matrix(0 -1 1 0 127.8574 157.0755)">GND</text><text fill="#fff" font-family="'ArialMT'" font-size="5.8464" transform="translate(115.4697 193.5218)">TX</text><text fill="#fff" font-family="'ArialMT'" font-size="5.8464" transform="translate(115.5649 202.0716)">RX</text><text fill="#fff" font-family="'ArialMT'" font-size="4.176" transform="matrix(0 -1 1 0 150.1182 305.1263)">RESET</text><text fill="#fff" font-family="'ArialMT'" font-size="4.176" transform="matrix(0 -1 1 0 160.0186 305.5756)">3V3</text><text fill="#fff" font-family="'ArialMT'" font-size="4.176" transform="matrix(-.00000004 -1 1 -.00000004 222.7767 305.6221)">A1</text><text fill="#fff" font-family="'ArialMT'" font-size="4.176" transform="matrix(-.00000004 -1 1 -.00000004 231.7816 305.6221)">A2</text><text fill="#fff" font-family="'ArialMT'" font-size="4.176" transform="matrix(-.00000004 -1 1 -.00000004 240.7777 305.6221)">A3</text><text fill="#fff" font-family="'ArialMT'" font-size="4.176" transform="matrix(-.00000004 -1 1 -.00000004 249.7792 305.6221)">A4</text><text fill="#fff" font-family="'ArialMT'" font-size="4.176" transform="matrix(-.00000004 -1 1 -.00000004 258.7777 305.6221)">A5</text><text fill="#fff" font-family="'ArialMT'" font-size="4.176" transform="matrix(-.00000004 -1 1 -.00000004 195.9603 305.6221)">VIN</text><text fill="#fff" font-family="'ArialMT'" font-size="4.176" transform="matrix(-.00000004 -1 1 -.00000004 177.9554 305.6221)">GND</text><text fill="#fff" font-family="'ArialMT'" font-size="4.176" transform="matrix(-.00000004 -1 1 -.00000004 186.7005 305.5752)">GND</text><text fill="#fff" font-family="'ArialMT'" font-size="4.5936" transform="translate(191.2002 165.9706)">DIGITAL (PWM=</text><text fill="#fff" font-family="'ArialMT'" font-size="4.5936" transform="translate(237.2891 165.9706)">)</text><path d="m162.8 158.3c-.6 0-.9-.3-.9-.7 0-.3.1-.5.3-.9.3-.7.5-1.1-.3-1.1v-.4c.7 0 .9.3.9.7 0 .6-.6 1.2-.6 1.7 0 .2.2.4.5.4v.3z" fill="#fff"/><path d="m153.5 158.3c-.6 0-.9-.3-.9-.7 0-.3.1-.5.3-.9.3-.7.5-1.1-.3-1.1v-.4c1.8-.1.4 2 .4 2.4 0 .2.2.4.5.4z" fill="#fff"/><path d="m212.7 154.5c-.6 0-.9-.3-.9-.7 0-.8 1.2-2 0-2v-.4c1.8-.1.4 2 .4 2.4 0 .2.2.4.5.4z" fill="#fff"/><path d="m230.7 154.5c-.6 0-.9-.3-.9-.7 0-.3.1-.5.3-.9.3-.7.5-1.1-.3-1.1v-.4c1.8-.1.4 2 .4 2.4 0 .2.2.4.5.4z" fill="#fff"/><path d="m204.2 154.5c-.6 0-.9-.3-.9-.7 0-.3.1-.5.3-.9.3-.7.5-1.1-.3-1.1v-.4c.7 0 .9.3.9.7 0 .6-.6 1.3-.6 1.7 0 .2.2.4.5.4v.3z" fill="#fff"/><path d="m171.3 154.5c-.6 0-.9-.3-.9-.7 0-.3.1-.5.3-.9.3-.7.5-1.1-.3-1.1v-.4c.7 0 .9.3.9.7 0 .6-.6 1.3-.6 1.7 0 .2.2.4.5.4v.3z" fill="#fff"/><text fill="#fff" font-family="'ArialMT'" font-size="7.6511" transform="translate(146.0239 200.85)">Arduino</text><text fill="#fff" font-family="'ArialMT'" font-size="2.7822" transform="translate(183.501 196.3529)">TM</text><text fill="#fff" font-family="'ArialMT'" font-size="4.176" transform="matrix(0 -1 1 0 142.4688 305.1263)">IOREF</text><text fill="#fff" font-family="'ArialMT'" font-size="5.22" transform="matrix(0 -1 1 0 251.9668 235.7709)">ICSP</text><text fill="#fff" font-family="'ArialMT'" font-size="5.22" transform="translate(83.9688 171.9545)">ICSP2</text><text fill="#fff" font-family="'ArialMT'" font-size="5.8464" transform="translate(248.2188 193.5267)">ON</text><path d="m94 189.2h17.7v17.7h-17.7z" fill="#333"/><path d="m130.8 252.9h131.4v19.8h-131.4z" fill="#333"/><path d="m214.2 311.9c0 2.7-4 2.7-4 0 0-1.1 4-2.7 4 0z" fill="none" stroke="#9a916c" stroke-miterlimit="5" stroke-width="1.0141"/><path d="m210.2 307.2h4v9.3h-4zm2 6.7c2.7 0 2.7-4 0-4-1.1 0-2.6 4 0 4z" fill="#9a916c"/><path d="m223.2 311.9c0 2.7-4 2.7-4 0 0-1.1 4-2.7 4 0z" fill="none" stroke="#9a916c" stroke-miterlimit="5" stroke-width="1.0141"/><path d="m219.2 307.2h4v9.3h-4zm2 6.7c2.7 0 2.7-4 0-4-1.1 0-2.6 4 0 4z" fill="#9a916c"/><path d="m232.2 311.9c0 2.7-4 2.7-4 0 0-1.1 4-2.7 4 0z" fill="none" stroke="#9a916c" stroke-miterlimit="5" stroke-width="1.0141"/><path d="m228.2 307.2h4v9.3h-4zm2 6.7c2.7 0 2.7-4 0-4-1.1 0-2.7 4 0 4z" fill="#9a916c"/><path d="m241.2 311.9c0 2.7-4 2.7-4 0 0-1.1 4-2.7 4 0z" fill="none" stroke="#9a916c" stroke-miterlimit="5" stroke-width="1.0141"/><path d="m237.2 307.2h4v9.3h-4zm2 6.7c2.7 0 2.7-4 0-4-1.1 0-2.6 4 0 4z" fill="#9a916c"/><path d="m250.2 311.9c0 2.7-4 2.7-4 0 0-1.1 4-2.7 4 0z" fill="none" stroke="#9a916c" stroke-miterlimit="5" stroke-width="1.0141"/><path d="m246.2 307.2h4v9.3h-4zm2 6.7c2.7 0 2.7-4 0-4-1.1 0-2.6 4 0 4z" fill="#9a916c"/><path d="m259.2 311.9c0 2.7-4 2.7-4 0 0-1.1 4-2.7 4 0z" fill="none" stroke="#9a916c" stroke-miterlimit="5" stroke-width="1.0141"/><path d="m255.2 307.2h4v9.3h-4zm2 6.7c2.7 0 2.7-4 0-4-1.1 0-2.6 4 0 4z" fill="#9a916c"/><path d="m259.9 212.9c0 2.9-4.4 2.9-4.4 0 0-3 4.4-3 4.4 0z" fill="none" stroke="#9a916c" stroke-miterlimit="5" stroke-width="1.063"/><path d="m268.9 212.9c0 2.9-4.4 2.9-4.4 0 0-1.2 4.4-3 4.4 0z" fill="none" stroke="#9a916c" stroke-miterlimit="5" stroke-width="1.063"/><path d="m259.9 221.9c0 2.9-4.4 2.9-4.4 0 0-3 4.4-3 4.4 0z" fill="none" stroke="#9a916c" stroke-miterlimit="5" stroke-width="1.063"/><path d="m268.9 221.9c0 2.9-4.4 2.9-4.4 0 0-3 4.4-3 4.4 0z" fill="none" stroke="#9a916c" stroke-miterlimit="5" stroke-width="1.063"/><path d="m259.9 230.9c0 2.9-4.4 2.9-4.4 0 0-3 4.4-3 4.4 0z" fill="none" stroke="#9a916c" stroke-miterlimit="5" stroke-width="1.063"/><path d="m268.9 230.9c0 2.9-4.4 2.9-4.4 0 0-3 4.4-3 4.4 0z" fill="none" stroke="#9a916c" stroke-miterlimit="5" stroke-width="1.063"/><path d="m108.2 152.6c0 2.9-4.4 2.9-4.4 0 0-1.2 4.4-3 4.4 0z" fill="none" stroke="#9a916c" stroke-miterlimit="5" stroke-width="1.063"/><path d="m108.2 161.6c0 2.9-4.4 2.9-4.4 0 0-1.2 4.4-3 4.4 0z" fill="none" stroke="#9a916c" stroke-miterlimit="5" stroke-width="1.063"/><path d="m99.2 152.6c0 2.9-4.4 2.9-4.4 0 0-1.2 4.4-3 4.4 0z" fill="none" stroke="#9a916c" stroke-miterlimit="5" stroke-width="1.063"/><path d="m99.2 161.6c0 2.9-4.4 2.9-4.4 0 0-1.2 4.4-3 4.4 0z" fill="none" stroke="#9a916c" stroke-miterlimit="5" stroke-width="1.063"/><path d="m90.2 152.6c0 2.9-4.4 2.9-4.4 0 0-1.2 4.4-3 4.4 0z" fill="none" stroke="#9a916c" stroke-miterlimit="5" stroke-width="1.063"/><path d="m90.2 161.6c0 2.9-4.4 2.9-4.4 0 0-3 4.4-3 4.4 0z" fill="none" stroke="#9a916c" stroke-miterlimit="5" stroke-width="1.063"/><path d="m181.8 140.9c0 2.7-4 2.7-4 0 0-1.1 4-2.7 4 0z" fill="none" stroke="#9a916c" stroke-miterlimit="5" stroke-width="1.0141"/><path d="m177.8 136.2h4v9.3h-4zm2 6.7c2.7 0 2.7-4 0-4-1.1 0-2.6 4 0 4z" fill="#9a916c"/><path d="m172.8 140.9c0 2.7-4 2.7-4 0 0-1.1 4-2.7 4 0z" fill="none" stroke="#9a916c" stroke-miterlimit="5" stroke-width="1.0141"/><path d="m168.8 136.2h4v9.3h-4zm2 6.7c2.7 0 2.7-4 0-4-1.1 0-2.6 4 0 4z" fill="#9a916c"/><path d="m163.8 140.9c0 2.7-4 2.7-4 0 0-1.1 4-2.7 4 0z" fill="none" stroke="#9a916c" stroke-miterlimit="5" stroke-width="1.0141"/><path d="m159.8 136.2h4v9.3h-4zm2 6.7c2.7 0 2.7-4 0-4-1.1 0-2.6 4 0 4z" fill="#9a916c"/><path d="m154.8 140.9c0 2.7-4 2.7-4 0 0-1.1 4-2.7 4 0z" fill="none" stroke="#9a916c" stroke-miterlimit="5" stroke-width="1.0141"/><path d="m150.8 136.2h4v9.3h-4zm2 6.7c2.7 0 2.7-4 0-4-1.1 0-2.6 4 0 4z" fill="#9a916c"/><path d="m145.8 140.9c0 2.7-4 2.7-4 0 0-1.1 4-2.7 4 0z" fill="none" stroke="#9a916c" stroke-miterlimit="5" stroke-width="1.0141"/><path d="m141.8 136.2h4v9.3h-4zm2 6.7c2.7 0 2.7-4 0-4-1.1 0-2.6 4 0 4z" fill="#9a916c"/><path d="m136.8 140.9c0 2.7-4 2.7-4 0 0-1.1 4-2.7 4 0z" fill="none" stroke="#9a916c" stroke-miterlimit="5" stroke-width="1.0141"/><path d="m132.8 136.2h4v9.3h-4zm2 6.7c2.7 0 2.7-4 0-4-1.1 0-2.6 4 0 4z" fill="#9a916c"/><path d="m125.8 138.9c2.7 0 2.7 4 0 4-2.6 0-2.6-4 0-4z" fill="none" stroke="#9a916c" stroke-miterlimit="5" stroke-width="1.0141"/><path d="m123.8 136.2h4v9.3h-4zm2 6.7c2.7 0 2.7-4 0-4-2.6 0-2.6 4 0 4z" fill="#9a916c"/><path d="m118.8 140.9c0 2.7-4 2.7-4 0 0-1.1 4-2.7 4 0z" fill="none" stroke="#9a916c" stroke-miterlimit="5" stroke-width="1.0141"/><path d="m114.8 136.2h4v9.3h-4zm2 6.7c2.7 0 2.7-4 0-4-1.1 0-2.6 4 0 4z" fill="#9a916c"/><path d="m109.8 140.9c0 2.7-4 2.7-4 0 0-1.1 4-2.7 4 0z" fill="none" stroke="#9a916c" stroke-miterlimit="5" stroke-width="1.0141"/><path d="m105.8 136.2h4v9.3h-4zm2 6.7c2.7 0 2.7-4 0-4-1.1 0-2.6 4 0 4z" fill="#9a916c"/><path d="m100.8 140.9c0 2.7-4 2.7-4 0 0-1.1 4-2.7 4 0z" fill="none" stroke="#9a916c" stroke-miterlimit="5" stroke-width="1.0141"/><path d="m96.8 136.2h4v9.3h-4zm2 6.7c2.7 0 2.7-4 0-4-1.1 0-2.6 4 0 4z" fill="#9a916c"/><path d="m259.2 140.9c0 2.7-4 2.7-4 0 0-1.1 4-2.7 4 0z" fill="none" stroke="#9a916c" stroke-miterlimit="5" stroke-width="1.0141"/><path d="m255.2 136.2h4v9.3h-4zm2 6.7c2.7 0 2.7-4 0-4-1.1 0-2.6 4 0 4z" fill="#9a916c"/><path d="m250.2 140.9c0 2.7-4 2.7-4 0 0-1.1 4-2.7 4 0z" fill="none" stroke="#9a916c" stroke-miterlimit="5" stroke-width="1.0141"/><path d="m246.2 136.2h4v9.3h-4zm2 6.7c2.7 0 2.7-4 0-4-1.1 0-2.6 4 0 4z" fill="#9a916c"/><path d="m241.2 140.9c0 2.7-4 2.7-4 0 0-1.1 4-2.7 4 0z" fill="none" stroke="#9a916c" stroke-miterlimit="5" stroke-width="1.0141"/><path d="m237.2 136.2h4v9.3h-4zm2 6.7c2.7 0 2.7-4 0-4-1.1 0-2.6 4 0 4z" fill="#9a916c"/><path d="m232.2 140.9c0 2.7-4 2.7-4 0 0-1.1 4-2.7 4 0z" fill="none" stroke="#9a916c" stroke-miterlimit="5" stroke-width="1.0141"/><path d="m228.2 136.2h4v9.3h-4zm2 6.7c2.7 0 2.7-4 0-4-1.1 0-2.6 4 0 4z" fill="#9a916c"/><path d="m223.2 140.9c0 2.7-4 2.7-4 0 0-1.1 4-2.7 4 0z" fill="none" stroke="#9a916c" stroke-miterlimit="5" stroke-width="1.0141"/><path d="m219.2 136.2h4v9.3h-4zm2 6.7c2.7 0 2.7-4 0-4-1.1 0-2.6 4 0 4z" fill="#9a916c"/><path d="m214.2 140.9c0 2.7-4 2.7-4 0 0-1.1 4-2.7 4 0z" fill="none" stroke="#9a916c" stroke-miterlimit="5" stroke-width="1.0141"/><path d="m210.2 136.2h4v9.3h-4zm2 6.7c2.7 0 2.7-4 0-4-1.1 0-2.6 4 0 4z" fill="#9a916c"/><path d="m205.2 140.9c0 2.7-4 2.7-4 0 0-1.1 4-2.7 4 0z" fill="none" stroke="#9a916c" stroke-miterlimit="5" stroke-width="1.0141"/><path d="m201.2 136.2h4v9.3h-4zm2 6.7c2.7 0 2.7-4 0-4-1.1 0-2.6 4 0 4z" fill="#9a916c"/><path d="m196.2 140.9c0 2.7-4 2.7-4 0 0-1.1 4-2.7 4 0z" fill="none" stroke="#9a916c" stroke-miterlimit="5" stroke-width="1.0141"/><path d="m192.2 136.2h4v9.3h-4zm2 6.7c2.7 0 2.7-4 0-4-1.1 0-2.6 4 0 4z" fill="#9a916c"/><path d="m142.2 311.9c0 2.7-4 2.7-4 0 0-1.1 4-2.7 4 0z" fill="none" stroke="#9a916c" stroke-miterlimit="5" stroke-width="1.0141"/><path d="m133.2 311.9c0 2.7-4 2.7-4 0 0-1.1 4-2.7 4 0z" fill="none" stroke="#9a916c" stroke-miterlimit="5" stroke-width="1.0141"/><path d="m138.2 307.2h4v9.3h-4zm2 6.7c2.7 0 2.7-4 0-4-1.1 0-2.7 4 0 4z" fill="#9a916c"/><path d="m129.2 307.2h4v9.3h-4zm2 6.7c2.7 0 2.7-4 0-4-1.1 0-2.7 4 0 4z" fill="#9a916c"/><path d="m149.2 309.9c2.7 0 2.7 4 0 4-2.6 0-2.6-4 0-4z" fill="none" stroke="#9a916c" stroke-miterlimit="5" stroke-width="1.0141"/><path d="m147.2 307.2h4v9.3h-4zm2 6.7c2.7 0 2.7-4 0-4-2.6 0-2.6 4 0 4z" fill="#9a916c"/><path d="m160.2 311.9c0 2.7-4 2.7-4 0 0-1.1 4-2.7 4 0z" fill="none" stroke="#9a916c" stroke-miterlimit="5" stroke-width="1.0141"/><path d="m156.2 307.2h4v9.3h-4zm2 6.7c2.7 0 2.7-4 0-4-1.1 0-2.6 4 0 4z" fill="#9a916c"/><path d="m169.2 311.9c0 2.7-4 2.7-4 0 0-1.1 4-2.7 4 0z" fill="none" stroke="#9a916c" stroke-miterlimit="5" stroke-width="1.0141"/><path d="m165.2 307.2h4v9.3h-4zm2 6.7c2.7 0 2.7-4 0-4-1.1 0-2.6 4 0 4z" fill="#9a916c"/><path d="m178.2 311.9c0 2.7-4 2.7-4 0 0-1.1 4-2.7 4 0z" fill="none" stroke="#9a916c" stroke-miterlimit="5" stroke-width="1.0141"/><path d="m174.2 307.2h4v9.3h-4zm2 6.7c2.7 0 2.7-4 0-4-1.1 0-2.6 4 0 4z" fill="#9a916c"/><path d="m187.2 311.9c0 2.7-4 2.7-4 0 0-1.1 4-2.7 4 0z" fill="none" stroke="#9a916c" stroke-miterlimit="5" stroke-width="1.0141"/><path d="m183.2 307.2h4v9.3h-4zm2 6.7c2.7 0 2.7-4 0-4-1.1 0-2.7 4 0 4z" fill="#9a916c"/><path d="m196.2 311.9c0 2.7-4 2.7-4 0 0-1.1 4-2.7 4 0z" fill="none" stroke="#9a916c" stroke-miterlimit="5" stroke-width="1.0141"/><path d="m192.2 307.2h4v9.3h-4zm2 6.7c2.7 0 2.7-4 0-4-1.1 0-2.6 4 0 4z" fill="#9a916c"/><path d="m125.7 168.3h133.7" fill="none" stroke="#fff" stroke-linecap="round" stroke-miterlimit="5" stroke-width="1.08"/><path d="m209.8 289.6h49.6" fill="none" stroke="#fff" stroke-linecap="round" stroke-miterlimit="5" stroke-width="1.08"/><text fill="#fff" font-family="'ArialMT'" font-size="4.5936" transform="translate(182.1987 295.3895)">POWER</text><path d="m153.7 289.6h44.9" fill="none" stroke="#fff" stroke-linecap="round" stroke-miterlimit="5" stroke-width="1.08"/><text fill="#fff" font-family="'ArialMT'" font-size="4.6875" transform="matrix(0 -1 1 0 259.4131 150.2259)">0</text><text fill="#fff" font-family="'ArialMT'" font-size="4.6875" transform="matrix(0 -1 1 0 250.4141 150.2259)">1</text><text fill="#fff" font-family="'ArialMT'" font-size="4.6875" transform="matrix(0 -1 1 0 250.4141 166.1712)">TX0</text><text fill="#fff" font-family="'ArialMT'" font-size="4.6875" transform="matrix(0 -1 1 0 259.4131 166.1712)">RX0</text><path d="m247.4 154.4c-.3 0-.5-.4-.3-.7l1.2-1.8c.2-.2.5-.2.7 0 1.4 2.1 1.3 1.9 1.3 2.1s-1.1.3-2.9.4z" fill="#fff"/><path d="m259 151.7c.3 0 .6.4.4.7l-1.2 1.8c-.2.2-.5.2-.7 0-1.4-2.1-1.3-1.9-1.3-2.1-.1-.2.9-.3 2.8-.4z" fill="#fff"/><path d="m234.6 164.5c0-.7.3-1 .8-1 .9 0 2.2 1.3 2.2 0h.4c0 .8-.4 1-.8 1-.9 0-2.2-1.3-2.2 0z" fill="#fff"/><path d="m167.1 178.2c1.1-1.2 1.9-2.2 2.9-3.1 9.1-8.2 20.6-.6 18.6 8.9-.9 4.4-5.2 7.8-9.8 8-5.5.2-8.5-2.8-11.6-6.5-3.3 3.8-6.1 6.9-12.3 6.5-4.7-.3-9.1-4.7-9.3-9.4-.6-10.1 12.6-15.8 20.6-5.6.2.4.5.7.9 1.2z" fill="#fff"/><path d="m148.8 181.4c-.6 6.2 8.4 10.8 14 4 3.2-3.8 3.1-3.2 0-7-4.9-6.3-13.4-3.1-14 3z" fill="#0f7391"/><path d="m169.3 181.4c-.1.2-.1.7 0 .9 7.2 12.5 19.1 4.2 15.6-3.3-2.9-5.8-11-5.9-15.6 2.4z" fill="#0f7391"/><g fill="#fff"><path d="m159.7 182.8c-6.4 0-6.6.2-6.6-.2 0-1.7-.1-2.1.2-2.1 6.4 0 6.6-.2 6.6.2-.1 0 .1 2.1-.2 2.1z"/><path d="m181 180.5c-1.6 0-2.1.1-2.1-.2 0-1.6.1-2.1-.2-2.1-1.7 0-2.1-.1-2.1.2 0 1.6.1 2.1-.2 2.1-1.6 0-2.1-.1-2.1.2 0 1.7-.1 2.1.2 2.1 1.6 0 2.1-.1 2.1.2 0 1.6-.1 2.1.2 2.1 1.6 0 2.1.1 2.1-.2 0-1.6-.1-2.1.2-2.1 1.6 0 2.1.1 2.1-.2 0 0 .1-2.1-.2-2.1z"/><path d="m225.9 172.5c0 .4-.3.7-.7.7s-.7-.3-.7-.7c0-.9 1.4-.9 1.4 0z"/><path d="m224.2 172.5c0 .9-1.4.9-1.4 0 0-.4 1.4-.9 1.4 0z"/><path d="m222.4 172.5c0 .9-1.4.9-1.4 0 0-.4 1.4-.9 1.4 0z"/><path d="m220.6 172.5c0 .9-1.4.9-1.4 0 0-.4 1.4-.9 1.4 0z"/><path d="m218.9 172.5c0 .9-1.4.9-1.4 0-.1-.4 1.4-.9 1.4 0z"/><path d="m217.1 172.5c0 .9-1.4.9-1.4 0s1.4-.9 1.4 0z"/><path d="m214.6 171.8c.9 0 .9 1.4 0 1.4-.4 0-.7-.3-.7-.7s.3-.7.7-.7z"/><path d="m213.6 172.5c0 .9-1.4.9-1.4 0-.1-.4 1.4-.9 1.4 0z"/><path d="m211.8 172.5c0 .9-1.4.9-1.4 0 0-.4 1.4-.9 1.4 0z"/><path d="m210 172.5c0 .9-1.4.9-1.4 0 0-.4 1.4-.9 1.4 0z"/><path d="m208.2 172.5c0 .9-1.4.9-1.4 0 0-.4 1.4-.9 1.4 0z"/><path d="m206.5 172.5c0 .9-1.4.9-1.4 0-.1-.4 1.4-.9 1.4 0z"/><path d="m204.7 172.5c0 .9-1.4.9-1.4 0 0-.4 1.4-.9 1.4 0z"/><path d="m202.9 172.5c0 .9-1.4.9-1.4 0 0-.4 1.4-.9 1.4 0z"/><path d="m226 191.1c0 .9-1.4.9-1.4 0 0-.4 1.4-.9 1.4 0z"/><path d="m227.7 190.8c0 .9-1.4.9-1.4 0 0-.4 1.4-.9 1.4 0z"/><path d="m229.3 190.2c0 .9-1.4.9-1.4 0 0-.4 1.4-1 1.4 0z"/><path d="m230.8 189.2c0 .9-1.4.9-1.4 0-.1-.3 1.4-.9 1.4 0z"/><path d="m231.3 187.4c.9 0 .9 1.4 0 1.4s-.9-1.4 0-1.4z"/><path d="m233 186.7c0 .9-1.4.9-1.4 0 0-.4 1.4-.9 1.4 0z"/><path d="m233.8 185.2c0 .9-1.4.9-1.4 0 0-.4 1.4-1 1.4 0z"/><path d="m234.3 183.5c0 .9-1.4.9-1.4 0-.1-.4 1.4-.9 1.4 0z"/><path d="m234.4 181.8c0 .9-1.4.9-1.4 0 0-.4 1.4-1 1.4 0z"/><path d="m234.2 180.1c0 .9-1.4.9-1.4 0 0-.4 1.4-1 1.4 0z"/><path d="m233.8 178.4c0 .9-1.4.9-1.4 0-.1-.4 1.4-.9 1.4 0z"/><path d="m233 176.9c0 .9-1.4.9-1.4 0 0-.4 1.4-1 1.4 0z"/><path d="m231.9 175.5c0 .9-1.4.9-1.4 0 0-.4 1.4-.9 1.4 0z"/><path d="m230.7 174.4c0 .9-1.4.9-1.4 0 0-.4 1.4-1 1.4 0z"/><path d="m229.2 173.5c0 .9-1.4.9-1.4 0 0-.4 1.4-1 1.4 0z"/><path d="m227.6 172.8c0 .9-1.4.9-1.4 0 0-.3 1.4-.9 1.4 0z"/><path d="m225.9 172.5c0 .4-.3.7-.7.7s-.7-.3-.7-.7c0-.9 1.4-.9 1.4 0z"/><path d="m224.2 172.5c0 .9-1.4.9-1.4 0 0-.4 1.4-.9 1.4 0z"/><path d="m201 191c0 .9-1.4.9-1.4 0 0-.4 1.4-.9 1.4 0z"/><path d="m199.3 190.7c0 .9-1.4.9-1.4 0 0-.4 1.4-1 1.4 0z"/><path d="m197.7 190c0 .9-1.4.9-1.4 0 0-.4 1.4-.9 1.4 0z"/><path d="m196.3 189.1c0 .9-1.4.9-1.4 0 0-.4 1.4-1 1.4 0z"/><path d="m195.1 187.9c0 .9-1.4.9-1.4 0 0-.4 1.4-.9 1.4 0z"/><path d="m194.1 186.5c0 .9-1.4.9-1.4 0 0-.4 1.4-.9 1.4 0z"/><path d="m193.4 185c0 .9-1.4.9-1.4 0-.1-.4 1.4-.9 1.4 0z"/><path d="m192.9 183.4c0 .9-1.4.9-1.4 0 0-.4 1.4-1 1.4 0z"/><path d="m192.8 181.7c0 .9-1.4.9-1.4 0 0-.4 1.4-1 1.4 0z"/><path d="m193 180c-.1.9-1.5.8-1.4-.1 0-.4 1.5-.8 1.4.1z"/><path d="m193.4 178.5c-.3.9-1.6.5-1.4-.4.2-.3 1.7-.5 1.4.4z"/><path d="m194.2 176.8c0 .9-1.4.9-1.4 0 0-.4 1.4-.9 1.4 0z"/><path d="m194.5 174.8c.9 0 .9 1.4 0 1.4s-.9-1.4 0-1.4z"/><path d="m195.8 173.6c.9 0 .9 1.4 0 1.4-.4 0-.7-.3-.7-.7s.3-.7.7-.7z"/><path d="m197.3 172.7c.9 0 .9 1.4 0 1.4-.4 0-.7-.3-.7-.7-.1-.3.3-.7.7-.7z"/><path d="m198.8 172.1c.9 0 .9 1.4 0 1.4-.4 0-.7-.3-.7-.7s.3-.7.7-.7z"/><path d="m200.5 171.8c.9 0 .9 1.4 0 1.4-.4 0-.7-.3-.7-.7s.3-.7.7-.7z"/><path d="m202.9 172.5c0 .9-1.4.9-1.4 0 0-.4 1.4-.9 1.4 0z"/><path d="m225.9 191.2c0 .9-1.4.9-1.4 0 0-.4 1.4-.9 1.4 0z"/><path d="m224.2 191.2c0 .9-1.4.9-1.4 0 0-.4 1.4-.9 1.4 0z"/><path d="m222.4 191.2c0 .9-1.4.9-1.4 0 0-.4 1.4-.9 1.4 0z"/><path d="m220.6 191.2c0 .9-1.4.9-1.4 0 0-.4 1.4-.9 1.4 0z"/><path d="m218.9 191.2c0 .9-1.4.9-1.4 0-.1-.4 1.4-.9 1.4 0z"/><path d="m217.1 191.2c0 .9-1.4.9-1.4 0 0-.4 1.4-.9 1.4 0z"/><path d="m215.3 191.2c0 .9-1.4.9-1.4 0 0-.4 1.4-.9 1.4 0z"/><path d="m213.6 191.2c0 .9-1.4.9-1.4 0-.1-.4 1.4-.9 1.4 0z"/><path d="m211.8 191.2c0 .9-1.4.9-1.4 0 0-.4 1.4-.9 1.4 0z"/><path d="m210 191.2c0 .9-1.4.9-1.4 0 0-.4 1.4-.9 1.4 0z"/><path d="m208.2 191.2c0 .9-1.4.9-1.4 0 0-.4 1.4-.9 1.4 0z"/><path d="m206.5 191.2c0 .9-1.4.9-1.4 0-.1-.4 1.4-.9 1.4 0z"/><path d="m204.7 191.2c0 .9-1.4.9-1.4 0 0-.4 1.4-.9 1.4 0z"/><path d="m202.9 191.2c0 .9-1.4.9-1.4 0 0-.4 1.4-.9 1.4 0z"/><path d="m199.7 186.8c-1-.8-1.2-1.7-1.4-2.9-.1-1.1 0-1.5-.1-7.8h1.2c.3 6.8-1.1 10.4 2.8 10.4 4.2 0 2.7-3.2 3.1-10.4h1.2c-.1 5.5.3 8-.5 9.6-.6 1.2-5.1 2.1-6.3 1.1z"/><path d="m217.6 187.4h-1.2l-5.9-9.3v9.3h-1v-11.3h1.1l5.8 9.3v-9.3h1.2z"/><path d="m229.2 179.3c.9 2.9.2 6.7-2.6 8-2.4 1.1-5.5.1-6.6-3.1-.7-2.1-.5-5 1-6.8.4-.5 1-.9 1.6-1.2 2.5-1.1 5.6-.1 6.6 3.1zm-1 2.5c0-2.4-1.1-4.7-3.5-4.7s-3.6 2.2-3.6 4.7c0 1.8.6 3.6 2.1 4.4.9.4 5-.3 5-4.4z"/></g><path d="m207.7 307.4h54v9h-54z" fill="#404040"/><path d="m210.5 310.1h3.5v3.5h-3.5z"/><path d="m214 310.1 1.2-1.2h-6l1.3 1.2z" fill="#2a2a29"/><path d="m214 313.6 1.2 1.3v-6l-1.2 1.2z" fill="#474747"/><path d="m210.5 313.6-1.3 1.3h6l-1.2-1.3z" fill="#595959"/><path d="m210.5 310.1-1.3-1.2v6l1.3-1.3z" fill="#373737"/><path d="m219.5 310.1h3.5v3.5h-3.5z"/><path d="m223 310.1 1.2-1.2h-6l1.3 1.2z" fill="#2a2a29"/><path d="m223 313.6 1.2 1.3v-6l-1.2 1.2z" fill="#474747"/><path d="m219.5 313.6-1.3 1.3h6l-1.2-1.3z" fill="#595959"/><path d="m219.5 310.1-1.3-1.2v6l1.3-1.3z" fill="#373737"/><path d="m228.5 310.1h3.5v3.5h-3.5z"/><path d="m232 310.1 1.2-1.2h-6l1.3 1.2z" fill="#2a2a29"/><path d="m232 313.6 1.2 1.3v-6l-1.2 1.2z" fill="#474747"/><path d="m228.5 313.6-1.3 1.3h6l-1.2-1.3z" fill="#595959"/><path d="m228.5 310.1-1.3-1.2v6l1.3-1.3z" fill="#373737"/><path d="m237.5 310.1h3.5v3.5h-3.5z"/><path d="m241 310.1 1.2-1.2h-6l1.3 1.2z" fill="#2a2a29"/><path d="m241 313.6 1.2 1.3v-6l-1.2 1.2z" fill="#474747"/><path d="m237.5 313.6-1.3 1.3h6l-1.2-1.3z" fill="#595959"/><path d="m237.5 310.1-1.3-1.2v6l1.3-1.3z" fill="#373737"/><path d="m246.5 310.1h3.5v3.5h-3.5z"/><path d="m250 310.1 1.2-1.2h-6l1.3 1.2z" fill="#2a2a29"/><path d="m250 313.6 1.2 1.3v-6l-1.2 1.2z" fill="#474747"/><path d="m246.5 313.6-1.3 1.3h6l-1.2-1.3z" fill="#595959"/><path d="m246.5 310.1-1.3-1.2v6l1.3-1.3z" fill="#373737"/><path d="m255.5 310.1h3.5v3.5h-3.5z"/><path d="m259 310.1 1.2-1.2h-6l1.3 1.2z" fill="#2a2a29"/><path d="m259 313.6 1.2 1.3v-6l-1.2 1.2z" fill="#474747"/><path d="m255.5 313.6-1.3 1.3h6l-1.2-1.3z" fill="#595959"/><path d="m255.5 310.1-1.3-1.2v6l1.3-1.3z" fill="#373737"/><path d="m255.2 217.2h14l1.9-1.9v-4.9l-1.9-1.9h-14l-1.9 1.9v4.9z" fill="#404040"/><path d="m255.2 226.2h14l1.9-1.9v-4.9l-1.9-1.9h-14l-1.9 1.9v4.9z" fill="#404040"/><path d="m255.2 235.1h14l1.9-1.8v-5l-1.9-1.9h-14l-1.9 1.9v5z" fill="#404040"/><path d="m255.2 217.2h14l1.9-1.9v-4.9l-1.9-1.9h-14l-1.9 1.9v4.9z" fill="#404040"/><path d="m255.2 226.2h14l1.9-1.9v-4.9l-1.9-1.9h-14l-1.9 1.9v4.9z" fill="#404040"/><path d="m255.2 235.1h14l1.9-1.8v-5l-1.9-1.9h-14l-1.9 1.9v5z" fill="#404040"/><path d="m256.3 229.2h2.9v2.9h-2.9z" fill="#8d8c8c"/><path d="m265.3 229.2h2.9v2.9h-2.9z" fill="#8d8c8c"/><path d="m256.3 220.2h2.9v2.9h-2.9z" fill="#8d8c8c"/><path d="m265.3 220.2h2.9v2.9h-2.9z" fill="#8d8c8c"/><path d="m256.3 211.2h2.9v2.9h-2.9z" fill="#8d8c8c"/><path d="m265.3 211.2h2.9v2.9h-2.9z" fill="#8d8455"/><path d="m266 211.9h1.5v1.5h-1.5z" fill="#8c8663"/><path d="m267.5 211.9.7-.7h-2.9l.7.7z" fill="#b8af82"/><path d="m268.2 211.2v2.9l-.7-.7v-1.5z" fill="#80795b"/><path d="m268.2 214.1h-2.9l.7-.7h1.5z" fill="#5e5b43"/><path d="m266 213.4-.7.7v-2.9l.7.7z" fill="#9a916c"/><path d="m257 211.9h1.5v1.5h-1.5z" fill="#8c8663"/><path d="m258.5 211.9.7-.7h-2.9l.7.7z" fill="#b8af82"/><path d="m259.2 211.2v2.9l-.7-.7v-1.5z" fill="#80795b"/><path d="m259.2 214.1h-2.9l.7-.7h1.5z" fill="#5e5b43"/><path d="m257 213.4-.7.7v-2.9l.7.7z" fill="#9a916c"/><path d="m266 220.9h1.5v1.5h-1.5z" fill="#8c8663"/><path d="m267.5 220.9.7-.7h-2.9l.7.7z" fill="#b8af82"/><path d="m268.2 220.2v2.9l-.7-.7v-1.5z" fill="#80795b"/><path d="m268.2 223.1h-2.9l.7-.7h1.5z" fill="#5e5b43"/><path d="m266 222.4-.7.7v-2.9l.7.7z" fill="#9a916c"/><path d="m257 220.9h1.5v1.5h-1.5z" fill="#8c8663"/><path d="m258.5 220.9.7-.7h-2.9l.7.7z" fill="#b8af82"/><path d="m259.2 220.2v2.9l-.7-.7v-1.5z" fill="#80795b"/><path d="m259.2 223.1h-2.9l.7-.7h1.5z" fill="#5e5b43"/><path d="m257 222.4-.7.7v-2.9l.7.7z" fill="#9a916c"/><path d="m266 229.9h1.5v1.5h-1.5z" fill="#8c8663"/><path d="m267.5 229.9.7-.7h-2.9l.7.7z" fill="#b8af82"/><path d="m268.2 229.2v2.9l-.7-.7v-1.5z" fill="#80795b"/><path d="m268.2 232.1h-2.9l.7-.7h1.5z" fill="#5e5b43"/><path d="m266 231.4-.7.7v-2.9l.7.7z" fill="#9a916c"/><path d="m257 229.9h1.5v1.5h-1.5z" fill="#8c8663"/><path d="m258.5 229.9.7-.7h-2.9l.7.7z" fill="#b8af82"/><path d="m259.2 229.2v2.9l-.7-.7v-1.5z" fill="#80795b"/><path d="m259.2 232.1h-2.9l.7-.7h1.5z" fill="#5e5b43"/><path d="m257 231.4-.7.7v-2.9l.7.7z" fill="#9a916c"/><path d="m92.4 164.1v-14l-1.9-1.9h-4.9l-1.9 1.9v14l1.9 1.9h4.9z" fill="#404040"/><path d="m101.4 164.1v-14l-1.9-1.9h-4.9l-1.9 1.9v14l1.9 1.9h4.9z" fill="#404040"/><path d="m110.3 164.1v-14l-1.8-1.9h-5l-1.9 1.9v14l1.9 1.9h5z" fill="#404040"/><path d="m92.4 164.1v-14l-1.9-1.9h-4.9l-1.9 1.9v14l1.9 1.9h4.9z" fill="#404040"/><path d="m101.4 164.1v-14l-1.9-1.9h-4.9l-1.9 1.9v14l1.9 1.9h4.9z" fill="#404040"/><path d="m110.3 164.1v-14l-1.8-1.9h-5l-1.9 1.9v14l1.9 1.9h5z" fill="#404040"/><path d="m104.4 160.1h2.9v2.9h-2.9z" fill="#8d8c8c"/><path d="m104.4 151.1h2.9v2.9h-2.9z" fill="#8d8c8c"/><path d="m95.4 160.1h2.9v2.9h-2.9z" fill="#8d8c8c"/><path d="m95.4 151.1h2.9v2.9h-2.9z" fill="#8d8c8c"/><path d="m86.4 160.1h2.9v2.9h-2.9z" fill="#8d8c8c"/><path d="m86.4 151.1h2.9v2.9h-2.9z" fill="#8d8455"/><path d="m87.1 151.8h1.5v1.5h-1.5z" fill="#8c8663"/><path d="m87.1 151.8-.7-.7v2.9l.7-.7z" fill="#b8af82"/><path d="m86.4 151.1h2.9l-.7.7h-1.5z" fill="#80795b"/><path d="m89.3 151.1v2.9l-.7-.7v-1.5z" fill="#5e5b43"/><path d="m88.6 153.3.7.7h-2.9l.7-.7z" fill="#9a916c"/><path d="m87.1 160.8h1.5v1.5h-1.5z" fill="#8c8663"/><path d="m87.1 160.8-.7-.7v2.9l.7-.7z" fill="#b8af82"/><path d="m86.4 160.1h2.9l-.7.7h-1.5z" fill="#80795b"/><path d="m89.3 160.1v2.9l-.7-.7v-1.5z" fill="#5e5b43"/><path d="m88.6 162.3.7.7h-2.9l.7-.7z" fill="#9a916c"/><path d="m96.1 151.8h1.5v1.5h-1.5z" fill="#8c8663"/><path d="m96.1 151.8-.7-.7v2.9l.7-.7z" fill="#b8af82"/><path d="m95.4 151.1h2.9l-.7.7h-1.5z" fill="#80795b"/><path d="m98.3 151.1v2.9l-.7-.7v-1.5z" fill="#5e5b43"/><path d="m97.6 153.3.7.7h-2.9l.7-.7z" fill="#9a916c"/><path d="m96.1 160.8h1.5v1.5h-1.5z" fill="#8c8663"/><path d="m96.1 160.8-.7-.7v2.9l.7-.7z" fill="#b8af82"/><path d="m95.4 160.1h2.9l-.7.7h-1.5z" fill="#80795b"/><path d="m98.3 160.1v2.9l-.7-.7v-1.5z" fill="#5e5b43"/><path d="m97.6 162.3.7.7h-2.9l.7-.7z" fill="#9a916c"/><path d="m105.1 151.8h1.5v1.5h-1.5z" fill="#8c8663"/><path d="m105.1 151.8-.7-.7v2.9l.7-.7z" fill="#b8af82"/><path d="m104.4 151.1h2.9l-.7.7h-1.5z" fill="#80795b"/><path d="m107.3 151.1v2.9l-.7-.7v-1.5z" fill="#5e5b43"/><path d="m106.6 153.3.7.7h-2.9l.7-.7z" fill="#9a916c"/><path d="m105.1 160.8h1.5v1.5h-1.5z" fill="#8c8663"/><path d="m105.1 160.8-.7-.7v2.9l.7-.7z" fill="#b8af82"/><path d="m104.4 160.1h2.9l-.7.7h-1.5z" fill="#80795b"/><path d="m107.3 160.1v2.9l-.7-.7v-1.5z" fill="#5e5b43"/><path d="m106.6 162.3.7.7h-2.9l.7-.7z" fill="#9a916c"/><path d="m189.7 136.4h72v9h-72z" fill="#404040"/><path d="m192.5 139.1h3.5v3.5h-3.5z"/><path d="m196 139.1 1.2-1.2h-6l1.3 1.2z" fill="#2a2a29"/><path d="m196 142.6 1.2 1.3v-6l-1.2 1.2z" fill="#474747"/><path d="m192.5 142.6-1.3 1.3h6l-1.2-1.3z" fill="#595959"/><path d="m192.5 139.1-1.3-1.2v6l1.3-1.3z" fill="#373737"/><path d="m201.5 139.1h3.5v3.5h-3.5z"/><path d="m205 139.1 1.2-1.2h-6l1.3 1.2z" fill="#2a2a29"/><path d="m205 142.6 1.2 1.3v-6l-1.2 1.2z" fill="#474747"/><path d="m201.5 142.6-1.3 1.3h6l-1.2-1.3z" fill="#595959"/><path d="m201.5 139.1-1.3-1.2v6l1.3-1.3z" fill="#373737"/><path d="m210.5 139.1h3.5v3.5h-3.5z"/><path d="m214 139.1 1.2-1.2h-6l1.3 1.2z" fill="#2a2a29"/><path d="m214 142.6 1.2 1.3v-6l-1.2 1.2z" fill="#474747"/><path d="m210.5 142.6-1.3 1.3h6l-1.2-1.3z" fill="#595959"/><path d="m210.5 139.1-1.3-1.2v6l1.3-1.3z" fill="#373737"/><path d="m219.5 139.1h3.5v3.5h-3.5z"/><path d="m223 139.1 1.2-1.2h-6l1.3 1.2z" fill="#2a2a29"/><path d="m223 142.6 1.2 1.3v-6l-1.2 1.2z" fill="#474747"/><path d="m219.5 142.6-1.3 1.3h6l-1.2-1.3z" fill="#595959"/><path d="m219.5 139.1-1.3-1.2v6l1.3-1.3z" fill="#373737"/><path d="m228.5 139.1h3.5v3.5h-3.5z"/><path d="m232 139.1 1.2-1.2h-6l1.3 1.2z" fill="#2a2a29"/><path d="m232 142.6 1.2 1.3v-6l-1.2 1.2z" fill="#474747"/><path d="m228.5 142.6-1.3 1.3h6l-1.2-1.3z" fill="#595959"/><path d="m228.5 139.1-1.3-1.2v6l1.3-1.3z" fill="#373737"/><path d="m237.5 139.1h3.5v3.5h-3.5z"/><path d="m241 139.1 1.2-1.2h-6l1.3 1.2z" fill="#2a2a29"/><path d="m241 142.6 1.2 1.3v-6l-1.2 1.2z" fill="#474747"/><path d="m237.5 142.6-1.3 1.3h6l-1.2-1.3z" fill="#595959"/><path d="m237.5 139.1-1.3-1.2v6l1.3-1.3z" fill="#373737"/><path d="m246.5 139.1h3.5v3.5h-3.5z"/><path d="m250 139.1 1.2-1.2h-6l1.3 1.2z" fill="#2a2a29"/><path d="m250 142.6 1.2 1.3v-6l-1.2 1.2z" fill="#474747"/><path d="m246.5 142.6-1.3 1.3h6l-1.2-1.3z" fill="#595959"/><path d="m246.5 139.1-1.3-1.2v6l1.3-1.3z" fill="#373737"/><path d="m255.5 139.1h3.5v3.5h-3.5z"/><path d="m259 139.1 1.2-1.2h-6l1.3 1.2z" fill="#2a2a29"/><path d="m259 142.6 1.2 1.3v-6l-1.2 1.2z" fill="#474747"/><path d="m255.5 142.6-1.3 1.3h6l-1.2-1.3z" fill="#595959"/><path d="m255.5 139.1-1.3-1.2v6l1.3-1.3z" fill="#373737"/><path d="m126.2 172.2h9.2v4.8h-9.2z" fill="#f2f2f2"/><path d="m132.1 177s.8-.6 1.1-.5.7-.2.8 0v.5z" fill="#22b573" fill-opacity=".7"/><path d="m130.2 173.9h1.1v1.2h-1.1z" fill="#fff"/><path d="m130.2 175.1h1.1v.1h-1.1z" fill="#b3b3b3"/><path d="m134.1 175.7-1.2.1v.6l1.2.2z" fill="#d1c690"/><path d="m132.9 176.2c-.3 0-.6-.1-.8-.2-.3-.1-.7-1-1-.9-.1 0-.1-.1 0-.1.4-.1.8.8 1.1.9.2.1.4.2.7.2.1-.1.1 0 0 .1.1 0 .1 0 0 0z" fill="#d1c690"/><path d="m127.4 173.6 1.2-.1v-.7l-1.2-.1z" fill="#d1c690"/><path d="m130.6 174.7c-.1-.4-1.4-1.5-2.4-1.5 0 0-.1 0-.1-.1 0-.4 2.4.6 2.6 1.5 0 .1 0 .1-.1.1z" fill="#d1c690"/><path d="m131.2 174.7s-.4 0-.5.4h.5z" fill="#d1c690"/><path d="m130.7 174.3s.2.4.1.4c-.1.1-.2.1-.3 0s.2-.4.2-.4z" fill="#d1c690"/><path d="m131.1 175.2c.3-.1.8.8 1 .9s.4.2.7.2v-.1c-.3 0-.6-.1-.7-.2-.2-.1-.6-1-1-.8z" fill="#9d956c"/><path d="m127.4 173.6 1.2-.1v.1l-1.2.1z" fill="#9d956c"/><path d="m130.6 174.7c-.1-.4-1.3-1.5-2.4-1.4v-.1c1.1 0 2.3 1.1 2.4 1.5z" fill="#9d956c"/><path d="m130.8 175.2h.5v-.1c-.1 0-.5 0-.5.1z" fill="#9d956c"/><path d="m130.5 174.8c.1.1.2.1.3 0v-.1c-.2.1-.3.1-.3.1z" fill="#9d956c"/><path d="m128 172.2h5.3v.1h-5.3z" fill="#fff" opacity=".5"/><path d="m127.4 172.2v4.8h6.6v-4.8z" fill="#f2f2f2" opacity=".5"/><path d="m127.5 173v-.3c.1-.5-.8-.3 6.2-.3.2 0 .2.1 0 .1s-4.9 0-5.4 0c-1-.1-.7.1-.8.5.1.2 0 .2 0 0z" fill="#fff" opacity=".55"/><path d="m133.9 176.7c0 .2.6.2-6.1.2-.2 0-.2-.1 0-.1h4.5c.7 0 1.6-.1 1.6-.1z" opacity=".03"/><path d="m127.2 177c.1-.5-.1-.8.2-1v-3.8h-1.3v4.8c.1 0 1.2 0 1.1 0z" fill="#d1c690"/><path d="m126.1 172.2h1.3v.1h-1.3z" fill="#fff" opacity=".5"/><path d="m135.4 177v-4.8h-1.4v4.3c.3.2.2.4.2.5z" fill="#d1c690"/><path d="m135.4 172.2h-1.4z" fill="#fff" opacity=".5"/><path d="m237.8 189h9.2v4.8h-9.2z" fill="#f2f2f2"/><path d="m243.8 193.8s.8-.6 1.1-.5.7-.2.8 0v.5z" fill="#22b573" fill-opacity=".7"/><path d="m241.8 190.8h1.1v1.2h-1.1z" fill="#fff"/><path d="m241.8 191.9h1.1v.1h-1.1z" fill="#b3b3b3"/><path d="m245.7 192.5-1.2.1v.7l1.2.1z" fill="#d1c690"/><path d="m243.8 192.8c-.3-.1-.7-1-1-.9-.1 0-.1-.1 0-.1.4-.1.8.8 1.1.9.7.3.8.1.8.3-.1 0-.7-.1-.9-.2z" fill="#d1c690"/><path d="m239 190.4 1.2-.1v-.6l-1.2-.2z" fill="#d1c690"/><path d="m242.3 191.6s-.1-.1 0 0c-.1-.4-1.4-1.5-2.4-1.5-.1 0-.1-.2 0-.2 1.2 0 2.8 1.5 2.4 1.7z" fill="#d1c690"/><path d="m242.9 191.6s-.4 0-.5.4h.5z" fill="#d1c690"/><path d="m242.3 191.2s.2.4.1.4c-.1.1-.2.1-.3 0s.2-.4.2-.4z" fill="#d1c690"/><path d="m242.8 192c.3-.1.8.8 1 .9s.4.2.8.2v-.1c-.3 0-.6-.1-.8-.2-.3-.1-.7-1-1-.8z" fill="#9d956c"/><path d="m239 190.4 1.2-.1v.1l-1.2.1z" fill="#9d956c"/><path d="m242.2 191.6c-.1-.4-1.3-1.5-2.4-1.4v-.1c1.2-.1 2.3 1 2.4 1.5z" fill="#9d956c"/><path d="m242.4 192h.5v-.1c0 .1-.4.1-.5.1z" fill="#9d956c"/><path d="m242.1 191.7c.1.1.2.1.3 0v-.1c-.1.1-.2.1-.3.1z" fill="#9d956c"/><path d="m239.7 189h5.3v.1h-5.3z" fill="#fff" opacity=".5"/><path d="m239 189v4.8h6.6v-4.8z" fill="#f2f2f2" opacity=".5"/><path d="m239.1 189.8c0-.6 0-.7.1-.7 7.6 0 8.8.1.6.1-.8 0-.6.3-.7.6.1.2 0 .2 0 0z" fill="#fff" opacity=".55"/><path d="m245.5 193.5c0 .2.6.2-6.1.2-.2 0-.2-.1 0-.1 10.8 0-1.3 0 6.1-.1z" opacity=".03"/><path d="m239 193.8v-4.8h-1.3v4.8c.2 0 1.4 0 1.3 0z" fill="#d1c690"/><path d="m239 189.1h-1.2v-.1h1.2z" fill="#fff" opacity=".5"/><path d="m247 193.8v-4.8h-1.3v4.8z" fill="#d1c690"/><path d="m247 189.1h-1.3v-.1h1.3z" fill="#fff" opacity=".5"/><path d="m121.9 299.9h1.6v1.3h-1.6z" fill="#ccc"/><path d="m121.9 275.7h1.6v1.3h-1.6z" fill="#ccc"/><path d="m123.2 299.9h.3v1.3h-.3z" opacity=".1"/><path d="m123.2 275.7h.3v1.3h-.3z" opacity=".1"/><path d="m121.9 299.9h.3v1.3h-.3z" fill="#fff" opacity=".2"/><path d="m121.9 275.7h.3v1.3h-.3z" fill="#fff" opacity=".2"/><path d="m111.2 281.8v16.4c0 1 .8 1.7 1.7 1.7h19.5c1 0 1.7-.8 1.7-1.7v-16.4l-4.8-4.8h-13.3z" fill="#1a1a1a"/><path d="m133.5 288.5c0 6-4.9 10.9-10.9 10.9s-10.9-4.9-10.9-10.9 4.9-10.9 10.9-10.9c6.1 0 10.9 4.9 10.9 10.9z" fill="#e6e6e6"/><path d="m111.2 281.8v16.4c0 1 .8 1.7 1.7 1.7h19.5c1 0 1.7-.8 1.7-1.7v-16.4l-4.8-4.8h-13.3z" fill="#333"/><path d="m129.1 277 4.8 4.8v16.4c0 1-.8 1.7-1.7 1.7h.2c1 0 1.7-.8 1.7-1.7v-16.4l-4.8-4.8z"/><path d="m113.2 299.9c-1 0-1.7-.8-1.7-1.7v-16.4l4.8-4.8h-.2l-4.8 4.8v16.4c0 1 .8 1.7 1.7 1.7z" fill="#fff" opacity=".1"/><path d="m131.7 294.8c-6.2 8.7-19.7 4.1-19.7-6.3 0-6 4.9-10.9 10.9-10.9 8.8 0 13.9 10 8.8 17.2z" fill="#e6e6e6"/><path d="m131.5 294.8h-17.7c4.4 6.1 13.4 6.1 17.7 0z"/><path d="m123 277.6c-6 0-10.9 4.9-10.9 10.9 0 5.9 4.8 10.9 10.9 10.9-.1 0-5.6.4-9.2-4.6-5.1-7.2 0-17.2 8.9-17.2z" fill="#fff" opacity=".3"/><path d="m122.4 299.3c3.7 0 6.9-1.8 8.9-4.6h.3c-3.6 5.1-9.1 4.6-9.2 4.6z" fill="#fff" opacity=".5"/><path d="m131.2 294.8c5.1-7.2 0-17.2-8.9-17.2h.3c8.9 0 13.9 10 8.9 17.2z" opacity=".2"/><path d="m96.7 299.9h1.6v1.3h-1.6z" fill="#ccc"/><path d="m96.7 275.7h1.6v1.3h-1.6z" fill="#ccc"/><path d="m98 299.9h.3v1.3h-.3z" opacity=".1"/><path d="m98 275.7h.3v1.3h-.3z" opacity=".1"/><path d="m96.7 299.9h.3v1.3h-.3z" fill="#fff" opacity=".2"/><path d="m96.7 275.7h.3v1.3h-.3z" fill="#fff" opacity=".2"/><path d="m86 281.8v16.4c0 1 .8 1.7 1.7 1.7h19.5c1 0 1.7-.8 1.7-1.7v-16.4l-4.8-4.8h-13.3z" fill="#1a1a1a"/><path d="m108.3 288.5c0 6-4.9 10.9-10.9 10.9s-10.9-4.9-10.9-10.9 4.9-10.9 10.9-10.9c6.1 0 10.9 4.9 10.9 10.9z" fill="#e6e6e6"/><path d="m86 281.8v16.4c0 1 .8 1.7 1.7 1.7h19.5c1 0 1.7-.8 1.7-1.7v-16.4l-4.8-4.8h-13.3z" fill="#333"/><path d="m103.9 277 4.8 4.8v16.4c0 1-.8 1.7-1.7 1.7h.2c1 0 1.7-.8 1.7-1.7v-16.4l-4.8-4.8z"/><path d="m88 299.9c-1 0-1.7-.8-1.7-1.7v-16.4l4.7-4.8h-.2l-4.8 4.8v16.4c0 1 .8 1.7 1.7 1.7z" fill="#fff" opacity=".1"/><path d="m108.5 288.5c0 5.9-4.8 10.9-10.9 10.9-6 0-10.9-4.9-10.9-10.9s4.9-10.9 10.9-10.9 10.9 4.9 10.9 10.9z" fill="#e6e6e6"/><path d="m106.3 294.8h-17.7c4.4 6.1 13.4 6.1 17.7 0z"/><path d="m97.8 277.6c-8.9 0-14 10-8.9 17.2 2 2.8 5.2 4.6 8.9 4.6-.1 0-5.6.4-9.2-4.6-5.1-7.2 0-17.2 8.9-17.2z" fill="#fff" opacity=".3"/><path d="m97.2 299.4c3.7 0 6.9-1.8 8.9-4.6h.3c-3.6 5-9.1 4.5-9.2 4.6z" fill="#fff" opacity=".5"/><path d="m106 294.8c5.1-7.2 0-17.2-8.9-17.2h.3c8.9 0 13.9 10 8.9 17.2z" opacity=".2"/><path d="m126.7 307.4h72v9h-72z" fill="#404040"/><path d="m129.5 310.1h3.5v3.5h-3.5z"/><path d="m133 310.1 1.2-1.2h-6l1.3 1.2z" fill="#2a2a29"/><path d="m133 313.6 1.2 1.3v-6l-1.2 1.2z" fill="#474747"/><path d="m129.5 313.6-1.3 1.3h6l-1.2-1.3z" fill="#595959"/><path d="m129.5 310.1-1.3-1.2v6l1.3-1.3z" fill="#373737"/><path d="m138.5 310.1h3.5v3.5h-3.5z"/><path d="m142 310.1 1.2-1.2h-6l1.3 1.2z" fill="#2a2a29"/><path d="m142 313.6 1.2 1.3v-6l-1.2 1.2z" fill="#474747"/><path d="m138.5 313.6-1.3 1.3h6l-1.2-1.3z" fill="#595959"/><path d="m138.5 310.1-1.3-1.2v6l1.3-1.3z" fill="#373737"/><path d="m147.5 310.1h3.5v3.5h-3.5z"/><path d="m151 310.1 1.2-1.2h-6l1.3 1.2z" fill="#2a2a29"/><path d="m151 313.6 1.2 1.3v-6l-1.2 1.2z" fill="#474747"/><path d="m147.5 313.6-1.3 1.3h6l-1.2-1.3z" fill="#595959"/><path d="m147.5 310.1-1.3-1.2v6l1.3-1.3z" fill="#373737"/><path d="m156.5 310.1h3.5v3.5h-3.5z"/><path d="m160 310.1 1.2-1.2h-6l1.3 1.2z" fill="#2a2a29"/><path d="m160 313.6 1.2 1.3v-6l-1.2 1.2z" fill="#474747"/><path d="m156.5 313.6-1.3 1.3h6l-1.2-1.3z" fill="#595959"/><path d="m156.5 310.1-1.3-1.2v6l1.3-1.3z" fill="#373737"/><path d="m165.5 310.1h3.5v3.5h-3.5z"/><path d="m169 310.1 1.2-1.2h-6l1.3 1.2z" fill="#2a2a29"/><path d="m169 313.6 1.2 1.3v-6l-1.2 1.2z" fill="#474747"/><path d="m165.5 313.6-1.3 1.3h6l-1.2-1.3z" fill="#595959"/><path d="m165.5 310.1-1.3-1.2v6l1.3-1.3z" fill="#373737"/><path d="m174.5 310.1h3.5v3.5h-3.5z"/><path d="m178 310.1 1.2-1.2h-6l1.3 1.2z" fill="#2a2a29"/><path d="m178 313.6 1.2 1.3v-6l-1.2 1.2z" fill="#474747"/><path d="m174.5 313.6-1.3 1.3h6l-1.2-1.3z" fill="#595959"/><path d="m174.5 310.1-1.3-1.2v6l1.3-1.3z" fill="#373737"/><path d="m183.5 310.1h3.5v3.5h-3.5z"/><path d="m187 310.1 1.2-1.2h-6l1.3 1.2z" fill="#2a2a29"/><path d="m187 313.6 1.2 1.3v-6l-1.2 1.2z" fill="#474747"/><path d="m183.5 313.6-1.3 1.3h6l-1.2-1.3z" fill="#595959"/><path d="m183.5 310.1-1.3-1.2v6l1.3-1.3z" fill="#373737"/><path d="m192.5 310.1h3.5v3.5h-3.5z"/><path d="m196 310.1 1.2-1.2h-6l1.3 1.2z" fill="#2a2a29"/><path d="m196 313.6 1.2 1.3v-6l-1.2 1.2z" fill="#474747"/><path d="m192.5 313.6-1.3 1.3h6l-1.2-1.3z" fill="#595959"/><path d="m192.5 310.1-1.3-1.2v6l1.3-1.3z" fill="#373737"/><path d="m126.1 196.8h9.2v4.8h-9.2z" fill="#f2f2f2"/><path d="m129.3 196.8s-.8.6-1.1.5-.7.2-.8 0v-.5z" fill="#22b573" fill-opacity=".7"/><path d="m130.2 198.7h1.1v1.2h-1.1z" fill="#fff"/><path d="m130.2 198.6h1.1v.1h-1.1z" fill="#b3b3b3"/><path d="m127.4 198.2 1.2-.2v-.6l-1.2-.2z" fill="#d1c690"/><path d="m128.5 197.6c.3 0 .6.1.8.2.3.1.7 1 1 .9.1 0 .1.1 0 .1-.4.1-.8-.8-1.1-.9-.6-.2-.8-.1-.7-.3-.1 0 0 0 0 0z" fill="#d1c690"/><path d="m134.1 200.2-1.2.1v.7l1.2.1z" fill="#d1c690"/><path d="m130.8 199.1s.1 0 0 0c.1.4 1.4 1.5 2.4 1.5 0 0 .1 0 .1.1 0 .4-2.4-.6-2.6-1.5 0-.1 0-.1.1-.1z" fill="#d1c690"/><path d="m130.2 199.1s.4 0 .5-.4c-.1 0-.5 0-.5 0z" fill="#d1c690"/><path d="m130.8 199.5s-.2-.4-.1-.4c.1-.1.2-.1.3 0s-.2.4-.2.4z" fill="#d1c690"/><path d="m130.3 198.6c-.3.1-.8-.8-1-.9s-.4-.2-.7-.2v.1c.3 0 .6.1.7.2.2.1.7 1 1 .8z" fill="#9d956c"/><path d="m134.1 200.2-1.2.1 1.2-.2z" fill="#9d956c"/><path d="m130.9 199.1c.1.4 1.3 1.5 2.4 1.4v.1c-1.2 0-2.4-1.1-2.4-1.5z" fill="#9d956c"/><path d="m130.7 198.6c-.1 0-.5 0-.5 0v.1s.4 0 .5-.1z" fill="#9d956c"/><path d="m131 199c-.1-.1-.2-.1-.3 0v.1c.1-.1.2-.1.3-.1z" fill="#9d956c"/><path d="m128.1 201.6h5.3v.1h-5.3z" fill="#fff" opacity=".5"/><path d="m134 201.6v-4.8h-6.6v4.8z" fill="#f2f2f2" opacity=".5"/><path d="m134 200.8v.3c-.1.5.8.3-6.2.3-.2 0-.2-.1 0-.1 7 .1 6 .3 6.2-.5-.1-.2 0-.2 0 0z" fill="#fff" opacity=".55"/><path d="m127.6 197.1c0-.2-.6-.2 6.1-.2.2 0 .2.1 0 .1s-3.9 0-4.5 0c-.7 0-1.6.1-1.6.1z" opacity=".03"/><path d="m134.3 196.8c-.1.5.1.8-.2 1v3.8h1.3v-4.8c-.2 0-1.2 0-1.1 0z" fill="#d1c690"/><path d="m135.3 201.6h-1.3.1z" fill="#fff" opacity=".5"/><path d="m126.1 196.8v4.8h1.3v-4.3c-.3-.2-.2-.4-.2-.5z" fill="#d1c690"/><path d="m126.1 201.6h1.3v.1h-1.3z" fill="#fff" opacity=".5"/><path d="m126.1 188.7h9.2v4.8h-9.2z" fill="#f2f2f2"/><path d="m129.3 188.7s-.8.6-1.1.5-.7.2-.8 0v-.5z" fill="#22b573" fill-opacity=".7"/><path d="m130.2 190.6h1.1v1.2h-1.1z" fill="#fff"/><path d="m130.2 190.5h1.1v.1h-1.1z" fill="#b3b3b3"/><path d="m127.4 190.1 1.2-.2v-.6l-1.2-.2z" fill="#d1c690"/><path d="m128.5 189.5c.3 0 .6.1.8.2.3.1.7 1 1 .9.1 0 .1.1 0 .1-.4.1-.8-.8-1.1-.9-.6-.2-.8-.1-.7-.3-.1 0 0 0 0 0z" fill="#d1c690"/><path d="m134.1 192.1-1.2.1v.7l1.2.1z" fill="#d1c690"/><path d="m130.8 191s.1 0 0 0c.1.4 1.4 1.5 2.4 1.5 0 0 .1 0 .1.1 0 .4-2.4-.6-2.5-1.6-.1 0-.1 0 0 0z" fill="#d1c690"/><path d="m130.2 191s.4 0 .5-.4c-.1 0-.5 0-.5 0z" fill="#d1c690"/><path d="m130.8 191.4s-.2-.4-.1-.4c.1-.1.2-.1.3 0s-.2.4-.2.4z" fill="#d1c690"/><path d="m130.3 190.5c-.3.1-.8-.8-1-.9s-.4-.2-.7-.2v.1c.3 0 .6.1.7.2.2.1.7 1 1 .8z" fill="#9d956c"/><path d="m134.1 192.1-1.2.1 1.2-.2z" fill="#9d956c"/><path d="m130.9 191c.1.4 1.3 1.5 2.4 1.4v.1c-1.2 0-2.4-1.1-2.4-1.5z" fill="#9d956c"/><path d="m130.7 190.5c-.1 0-.5 0-.5 0v.1s.4 0 .5-.1z" fill="#9d956c"/><path d="m131 190.9c-.1-.1-.2-.1-.3 0v.1c.1-.1.2-.1.3-.1z" fill="#9d956c"/><path d="m128.1 193.5h5.3v.1h-5.3z" fill="#fff" opacity=".5"/><path d="m134 193.5v-4.8h-6.6v4.8z" fill="#f2f2f2" opacity=".5"/><path d="m134 192.7v.3c-.1.5.8.3-6.2.3-.2 0-.2-.1 0-.1 7 .1 6 .3 6.2-.5-.1-.2 0-.2 0 0z" fill="#fff" opacity=".55"/><path d="m127.6 189c0-.2-.6-.2 6.1-.2.2 0 .2.1 0 .1s-3.9 0-4.5 0c-.7 0-1.6.1-1.6.1z" opacity=".03"/><path d="m134.3 188.7c-.1.5.1.8-.2 1v3.8h1.3v-4.8c-.2 0-1.2 0-1.1 0z" fill="#d1c690"/><path d="m135.3 193.5h-1.3z" fill="#fff" opacity=".5"/><path d="m126.1 188.7v4.8h1.3v-4.3c-.3-.2-.2-.4-.2-.5z" fill="#d1c690"/><path d="m126.1 193.5h1.3v.1h-1.3z" fill="#fff" opacity=".5"/><path d="m65.7 265.3h6.1v4.3h-6.1z" fill="#999"/><path d="m65.7 257.1h6.1v4.3h-6.1z" fill="#999"/><path d="m65.7 248.9h6.1v4.3h-6.1z" fill="#999"/><path d="m71.6 265.3h.2v4.3h-.2z" fill="#fff" opacity=".2"/><path d="m71.6 257.1h.2v4.3h-.2z" fill="#fff" opacity=".2"/><path d="m71.6 248.9h.2v4.3h-.2z" fill="#fff" opacity=".2"/><path d="m46.6 252.8h6.6v12.8h-6.6z" fill="#999"/><path d="m46.6 252.8h.2v12.8h-.2z" fill="#fff" opacity=".2"/><path d="m53.2 247.2h12.4v24h-12.4z" fill="#303030"/><path d="m54.1 248.1v22.2l-.9.9v-24z" fill="#1f1f1f"/><path d="m64.8 248.1v22.2l.9.9v-24z" fill="#1f1f1f"/><path d="m64.8 270.3h-10.7l-.9.9h12.5z"/><path d="m64.8 248.1h-10.7l-.9-.9h12.5z" fill="#3d3d3d"/><path d="m63 269.4c-1.2 0-1.2-1.8 0-1.8.5 0 1.2 1.8 0 1.8z" fill="#1f1f1f"/><path d="m31.8 278.4h41.2v29.7h-41.2z" fill="#232323"/><path d="m32.5 279.1h39.9v2.1h-39.9z" fill="#494949"/><path d="m32.5 281.1h39.9v6.7h-39.9z" fill="#3d3d3d" fill-opacity=".3"/><path d="m31.2 305.4h41.2v2h-41.2z"/><path d="m31.2 298.1h41.2v7.3h-41.2z" fill="#0f0f0f" fill-opacity=".4"/><path d="m72.3 278.4h.7v29.7h-.7z" opacity=".2"/><path d="m69.5 308v-29.6" fill="none" opacity=".5" stroke="#000" stroke-miterlimit="12.5" stroke-width=".3125"/><path d="m34.6 278.4h1.6v29.7h-1.6z" opacity=".25"/><path d="m34.9 283.8v18.9h16.6c5.2 0 9.4-4.2 9.4-9.4s-4.2-9.4-9.4-9.4h-16.6z" opacity=".25" stroke="#565656" stroke-miterlimit="12.5" stroke-width=".3125"/><path d="m34.9 283.8v18.9h16.6c5.2 0 9.4-4.2 9.4-9.4s-4.2-9.4-9.4-9.4h-16.6z" fill="#232323"/><path d="m26.2 277.3h9.6v31.9h-9.6z" fill="#232323"/><path d="m73 289.6h2.1v7.1h-2.1z" fill="#6d6d6d"/><path d="m73 286.2h1.2v14h-1.2z" fill="#494949"/><path d="m27.1 277.8h7.8v1.3h-7.8z" fill="#494949"/><path d="m27.1 307.4h7.8v1.3h-7.8z"/><path d="m37.9 160.5v5.1h-6.1c.2-2.4-.7-5.1 1.1-5.1.2 0 5.3 0 5 0z" fill="#999"/><path d="m32.9 160.5v5.1h-1s0-3.8 0-4.1c-.1-.6.6-1 1-1z" fill="#808080"/><path d="m19.5 165.6h45.9v40.6h-45.9z" fill="#b3b3b3"/><path d="m10 165.6h9.5v40.6h-9.5z" fill="#999"/><path d="m10 203.6h55.3v2.6h-55.3z" fill="#ccc" opacity=".5"/><path d="m10 165.6h55.3v2.6h-55.3z" opacity=".2"/><path d="m37.9 211.3v-5.1h-6.1c.2 2.4-.7 5.1 1.1 5.1.2 0 5.3 0 5 0z" fill="#b3b3b3"/><path d="m32.9 211.3v-5.1h-1v4.1c-.1.5.6 1 1 1z" fill="#e6e6e6"/><path d="m40.5 136.3v20h7.8v-.5h10.3v.5h7.8v-20z" fill="#ccc"/><path d="m66.4 153v-19.9h-7.8v.5h-10.3v-.5h-7.8v19.9z" fill="#ccc"/><path d="m47 144.7c0-3.5 2.9-6.4 6.4-6.4s6.4 2.9 6.4 6.4-2.9 6.4-6.4 6.4-6.4-2.8-6.4-6.4z" fill="#641d1c"/><path d="m59.8 144.4c0-3.5-2.9-6.4-6.4-6.4s-6.4 2.9-6.4 6.4v.3c0-3.5 2.9-6.4 6.4-6.4s6.4 2.9 6.4 6.4z" opacity=".2"/><circle cx="53.4" cy="144.7" fill="#852725" r="6.2"/><circle cx="53.4" cy="144.9" fill="#852725" r="6.2"/><path d="m53.6 150.9c3.4 0 6.2-2.8 6.2-6.2s-2.8-6.2-6.2-6.2h-.3c3.4 0 6.2 2.8 6.2 6.2s-2.8 6.2-6.2 6.2z" opacity=".1"/><path d="m53.6 138.6c-3.4 0-6.2 2.8-6.2 6.2s2.8 6.2 6.2 6.2h-.3c-3.4 0-6.2-2.8-6.2-6.2s2.8-6.2 6.2-6.2z" fill="#fff" opacity=".2"/><path d="m40.5 155.8h7.8v.5h-7.8z" fill="#fff" opacity=".2"/><path d="m58.6 155.8h7.8v.5h-7.8z" fill="#fff" opacity=".2"/><path d="m48.3 155.4h10.3v.5h-10.3z" fill="#fff" opacity=".2"/><path d="m40.5 133.2h7.8v.5h-7.8z" opacity=".2"/><path d="m58.6 133.2h7.8v.5h-7.8z" opacity=".2"/><path d="m48.3 133.6h10.3v.5h-10.3z" opacity=".2"/><path d="m66.4 151h3.4v2.8h-3.4z" fill="#e6e6e6"/><path d="m66.4 135.7h3.4v2.8h-3.4z" fill="#e6e6e6"/><path d="m37.2 142.5h3.4v4.3h-3.4z" fill="#e6e6e6"/><path d="m37.2 151h3.4v2.8h-3.4z" fill="#e6e6e6"/><path d="m37.2 135.7h3.4v2.8h-3.4z" fill="#e6e6e6"/><path d="m37.2 142.5h.4v4.3h-.4z" fill="#fff" opacity=".2"/><path d="m37.2 151h.4v2.8h-.4z" fill="#fff" opacity=".2"/><path d="m37.2 135.7h.4v2.8h-.4z" fill="#fff" opacity=".2"/><path d="m69.8 150.9h.1v2.8h-.1z" opacity=".2"/><path d="m69.8 135.6h.1v2.8h-.1z" opacity=".2"/><path d="m66.5 151h.4v2.8h-.4z" opacity=".1"/><path d="m66.5 135.7h.4v2.8h-.4z" opacity=".1"/><text fill="#fff" font-family="'ArialMT'" font-size="5.22" transform="translate(44.0884 161.1268)">RESET</text><path d="m94.2 136.4h90v9h-90z" fill="#404040"/><path d="m97 139.1h3.5v3.5h-3.5z"/><path d="m100.5 139.1 1.3-1.2h-6.1l1.3 1.2z" fill="#2a2a29"/><path d="m100.5 142.6 1.3 1.3v-6l-1.3 1.2z" fill="#474747"/><path d="m97 142.6-1.3 1.3h6.1l-1.3-1.3z" fill="#595959"/><path d="m97 139.1-1.3-1.2v6l1.3-1.3z" fill="#373737"/><path d="m106 139.1h3.5v3.5h-3.5z"/><path d="m109.5 139.1 1.3-1.2h-6.1l1.3 1.2z" fill="#2a2a29"/><path d="m109.5 142.6 1.3 1.3v-6l-1.3 1.2z" fill="#474747"/><path d="m106 142.6-1.3 1.3h6.1l-1.3-1.3z" fill="#595959"/><path d="m106 139.1-1.3-1.2v6l1.3-1.3z" fill="#373737"/><path d="m115 139.1h3.5v3.5h-3.5z"/><path d="m118.5 139.1 1.3-1.2h-6.1l1.3 1.2z" fill="#2a2a29"/><path d="m118.5 142.6 1.3 1.3v-6l-1.3 1.2z" fill="#474747"/><path d="m115 142.6-1.3 1.3h6.1l-1.3-1.3z" fill="#595959"/><path d="m115 139.1-1.3-1.2v6l1.3-1.3z" fill="#373737"/><path d="m124 139.1h3.5v3.5h-3.5z"/><path d="m127.5 139.1 1.3-1.2h-6.1l1.3 1.2z" fill="#2a2a29"/><path d="m127.5 142.6 1.3 1.3v-6l-1.3 1.2z" fill="#474747"/><path d="m124 142.6-1.3 1.3h6.1l-1.3-1.3z" fill="#595959"/><path d="m124 139.1-1.3-1.2v6l1.3-1.3z" fill="#373737"/><path d="m133 139.1h3.5v3.5h-3.5z"/><path d="m136.5 139.1 1.3-1.2h-6.1l1.3 1.2z" fill="#2a2a29"/><path d="m136.5 142.6 1.3 1.3v-6l-1.3 1.2z" fill="#474747"/><path d="m133 142.6-1.3 1.3h6.1l-1.3-1.3z" fill="#595959"/><path d="m133 139.1-1.3-1.2v6l1.3-1.3z" fill="#373737"/><path d="m142 139.1h3.5v3.5h-3.5z"/><path d="m145.5 139.1 1.3-1.2h-6.1l1.3 1.2z" fill="#2a2a29"/><path d="m145.5 142.6 1.3 1.3v-6l-1.3 1.2z" fill="#474747"/><path d="m142 142.6-1.3 1.3h6.1l-1.3-1.3z" fill="#595959"/><path d="m142 139.1-1.3-1.2v6l1.3-1.3z" fill="#373737"/><path d="m151 139.1h3.5v3.5h-3.5z"/><path d="m154.5 139.1 1.3-1.2h-6.1l1.3 1.2z" fill="#2a2a29"/><path d="m154.5 142.6 1.3 1.3v-6l-1.3 1.2z" fill="#474747"/><path d="m151 142.6-1.3 1.3h6.1l-1.3-1.3z" fill="#595959"/><path d="m151 139.1-1.3-1.2v6l1.3-1.3z" fill="#373737"/><path d="m160 139.1h3.5v3.5h-3.5z"/><path d="m163.5 139.1 1.3-1.2h-6.1l1.3 1.2z" fill="#2a2a29"/><path d="m163.5 142.6 1.3 1.3v-6l-1.3 1.2z" fill="#474747"/><path d="m160 142.6-1.3 1.3h6.1l-1.3-1.3z" fill="#595959"/><path d="m160 139.1-1.3-1.2v6l1.3-1.3z" fill="#373737"/><path d="m169 139.1h3.5v3.5h-3.5z"/><path d="m172.5 139.1 1.3-1.2h-6.1l1.3 1.2z" fill="#2a2a29"/><path d="m172.5 142.6 1.3 1.3v-6l-1.3 1.2z" fill="#474747"/><path d="m169 142.6-1.3 1.3h6.1l-1.3-1.3z" fill="#595959"/><path d="m169 139.1-1.3-1.2v6l1.3-1.3z" fill="#373737"/><path d="m178 139.1h3.5v3.5h-3.5z"/><path d="m181.5 139.1 1.3-1.2h-6.1l1.3 1.2z" fill="#2a2a29"/><path d="m181.5 142.6 1.3 1.3v-6l-1.3 1.2z" fill="#474747"/><path d="m178 142.6-1.3 1.3h6.1l-1.3-1.3z" fill="#595959"/><path d="m178 139.1-1.3-1.2v6l1.3-1.3z" fill="#373737"/><g fill="none" stroke-linecap="round" transform="matrix(1 0 0 .60671498 7.803151 -21.816438)"><path d="m127 168.5v55.4" stroke="#008000" stroke-width="4.1083"/><path d="m127 168.5v55.4" stroke="#0f0" stroke-width="2.0541"/></g><path d="m125.8 94.6v10.3" style="fill:none;stroke:#000;stroke-width:3.745;stroke-linecap:round;stroke-linejoin:round;stroke-miterlimit:5"/><path d="m125.8 76.3v18.2" fill="none" stroke="#000" stroke-miterlimit="5" stroke-width="3.745"/><path d="m134.9 74.5v4.6" fill="#0f0" stroke="#0f0" stroke-miterlimit="5" stroke-width="3.745"/><path d="m85.9 38.7c-2.2.5-4.6 3.5-4.6 6.7s2.2 6.1 4.6 6.7 12.9 3.2 12.9 3.2v-19.8zm-.3 6.7c0-3.4 5.1-3.4 5.1 0s-5.1 3.4-5.1 0z"/><path d="m174.8 38.7c-2.4-.6-12.9-3.2-12.9-3.2v19.9l12.9-3.2c2.2-.5 4.6-3.5 4.6-6.7 0-3.3-2.2-6.2-4.6-6.8zm-4.9 6.7c0-3.4 5.1-3.4 5.1 0 .1 3.4-5.1 3.4-5.1 0z"/><circle cx="130.3" cy="45.4" fill="#0d0d0d" r="35.4"/><circle cx="130.3" cy="45.4" r="35.4"/><circle cx="130.3" cy="45.4" fill="#d7d8d9" r="6"/><path d="m96.9 51.7c-5.5-29.5 27.7-51.5 52.7-34.2" style="fill:none;stroke:#58595b;stroke-width:2.3186;stroke-linecap:round;stroke-linejoin:round;stroke-miterlimit:5"/><path d="m148.9 64c10.3-10.3 10.3-26.9 0-37.1-10.3-10.3-26.9-10.3-37.1 0-10.3 10.3-10.3 26.9 0 37.1 10.2 10.2 26.8 10.2 37.1 0z" style="fill:none;stroke:#3f3f41;stroke-width:.2603;stroke-linecap:round;stroke-linejoin:round;stroke-miterlimit:5"/><path d="m113.8 61.9c-9.1-9.1-9.1-23.9 0-33s23.9-9.1 33 0 9.1 23.9 0 33-23.9 9.1-33 0z" style="fill:none;stroke:#3f3f41;stroke-width:.2603;stroke-linecap:round;stroke-linejoin:round;stroke-miterlimit:5"/><path d="m144.8 59.9c8-8 8-20.9 0-28.9s-20.9-8-28.9 0-8 20.9 0 28.9c8 7.9 20.9 7.9 28.9 0z" style="fill:none;stroke:#3f3f41;stroke-width:.2603;stroke-linecap:round;stroke-linejoin:round;stroke-miterlimit:5"/><path d="m117.9 57.8c-6.8-6.8-6.8-17.9 0-24.8 6.8-6.8 17.9-6.9 24.8 0 6.8 6.8 6.8 17.9 0 24.8-6.8 6.8-17.9 6.8-24.8 0z" style="fill:none;stroke:#3f3f41;stroke-width:.2603;stroke-linecap:round;stroke-linejoin:round;stroke-miterlimit:5"/><path d="m140.6 55.7c5.7-5.7 5.7-14.9 0-20.6s-14.9-5.7-20.6 0-5.7 14.9 0 20.6 14.9 5.7 20.6 0z" style="fill:none;stroke:#3f3f41;stroke-width:.2603;stroke-linecap:round;stroke-linejoin:round;stroke-miterlimit:5"/><path d="m122.1 53.7c-4.6-4.6-4.6-11.9 0-16.5s11.9-4.6 16.5 0 4.6 11.9 0 16.5c-4.6 4.5-12 4.5-16.5 0z" style="fill:none;stroke:#3f3f41;stroke-width:.2603;stroke-linecap:round;stroke-linejoin:round;stroke-miterlimit:5"/><path d="m116.1 76.3c28.7 13.2 58-16.5 45.2-44.9" style="fill:none;stroke:#303032;stroke-width:2.3186;stroke-linecap:round;stroke-linejoin:round;stroke-miterlimit:5"/><path d="m125.803151 104.900357v36" fill="none" stroke="#000" stroke-linecap="round" stroke-miterlimit="5" stroke-width="4"/><path d="m125.803151 104.900357v36" fill="none" stroke="#404040" stroke-linecap="round" stroke-miterlimit="5" stroke-width="2"/><path d="m127.2 172.2h6.8v4.7h-6.8z" fill="#ff0" fill-opacity=".383"/><path d="m239 189h6.8v4.9h-6.8z" fill="#0f0" fill-opacity=".383"/><g fill="none" stroke-linecap="round" transform="matrix(1 0 0 .44929281 69.983272 28.783567)"><path d="m142.6 193.5v55.4" stroke="#008000" stroke-width="4.774"/><path d="m142.6 193.5v55.4" stroke="#0f0" stroke-width="2.387"/></g><g fill="none" stroke-linecap="round" transform="matrix(-.04494716 -.99991774 1.39796 -.00580866 -86.066574 192.35159)"><path d="m77.3 160.6-.4 55.4" stroke="#008000" stroke-width="2.7063"/><path d="m77.3 160.6-.4 55.4" stroke="#0f0" stroke-width="1.3532"/></g><path clip-rule="evenodd" d="m136 113.3c0 .8-.5 1.4-1.2 1.4-1.6 0-1.6-2.8 0-2.8.7 0 1.2.6 1.2 1.4h-1.2z" fill="#10e70e" fill-rule="evenodd"/><path clip-rule="evenodd" d="m213.8 114.9c0 1.8-2.4 1.8-2.4 0s2.4-1.8 2.4 0h-1.2z" fill="#10e70e" fill-rule="evenodd"/></svg>